<?xml version="1.0" encoding="utf-8"?>
<!-- Generator: Adobe Illustrator 27.5.0, SVG Export Plug-In . SVG Version: 6.00 Build 0)  -->
<svg version="1.1" xmlns="http://www.w3.org/2000/svg" xmlns:xlink="http://www.w3.org/1999/xlink" x="0px" y="0px"
	 viewBox="0 0 500 500" style="enable-background:new 0 0 500 500;" xml:space="preserve">
<g id="BACKGROUND">
	<rect style="fill:#FFFFFF;" width="500" height="500"/>
</g>
<g id="OBJECTS">
	<g>
		<g>
			<linearGradient id="SVGID_1_" gradientUnits="userSpaceOnUse" x1="164.5253" y1="243.2756" x2="244.6598" y2="160.059">
				<stop  offset="0" style="stop-color:#FB5507"/>
				<stop  offset="0.3066" style="stop-color:#FE9C0A"/>
				<stop  offset="1" style="stop-color:#FF006C"/>
			</linearGradient>
			<path style="fill:url(#SVGID_1_);" d="M205.391,244.919c-0.309-0.017-0.622-0.021-0.93-0.044
				c-0.885-0.065-1.764-0.166-2.645-0.281c-0.309-0.041-0.616-0.086-0.923-0.133c-6.038-0.907-11.916-2.987-17.292-6.243
				l-21.627,5.795l5.795-21.628c-3.247-5.363-5.324-11.224-6.235-17.245c-0.052-0.336-0.101-0.672-0.145-1.01
				c-0.111-0.858-0.21-1.714-0.273-2.576c-0.027-0.361-0.033-0.728-0.052-1.091c-0.652-12.825,3.856-25.866,13.63-35.639
				c18.325-18.325,48.146-18.325,66.472,0l12.876-12.876c-25.433-25.349-66.597-25.328-91.998,0.073
				c-25.427,25.427-25.427,66.652,0,92.079c25.401,25.401,66.565,25.422,91.998,0.073l-12.876-12.876
				C231.357,241.103,218.259,245.609,205.391,244.919z"/>
			
				<linearGradient id="SVGID_00000165227836799042445510000009971855809107390081_" gradientUnits="userSpaceOnUse" x1="234.492" y1="247.0701" x2="165.1449" y2="248.2258">
				<stop  offset="0" style="stop-color:#FE9C0A"/>
				<stop  offset="0.3023" style="stop-color:#FFBF0B"/>
				<stop  offset="1" style="stop-color:#FB5507"/>
			</linearGradient>
			<path style="fill:url(#SVGID_00000165227836799042445510000009971855809107390081_);" d="M205.391,244.919
				c-0.309-0.017-0.622-0.022-0.93-0.044c-0.885-0.065-1.764-0.166-2.645-0.281c-0.309-0.041-0.616-0.086-0.923-0.133
				c-6.038-0.907-11.916-2.987-17.292-6.243l-21.627,5.795l0.007-0.025c-0.008,0.005-0.017,0.009-0.025,0.015
				c0.031,0.031,0.056,0.065,0.086,0.095c25.401,25.401,66.565,25.422,91.998,0.073l-12.876-12.876
				C231.356,241.103,218.259,245.609,205.391,244.919z"/>
			
				<linearGradient id="SVGID_00000003105150829731600830000000221991926795268520_" gradientUnits="userSpaceOnUse" x1="168.8527" y1="245.8217" x2="244.5567" y2="247.748">
				<stop  offset="0" style="stop-color:#FB5507"/>
				<stop  offset="0.3066" style="stop-color:#FE9C0A"/>
				<stop  offset="1" style="stop-color:#FF006C"/>
			</linearGradient>
			<path style="fill:url(#SVGID_00000003105150829731600830000000221991926795268520_);" d="M254.04,244.171l-12.876-12.876
				c-0.035,0.035-0.074,0.063-0.109,0.098c-10.657,13.821-27.369,22.742-46.195,22.742c-12.321,0-23.716-3.864-33.134-10.386
				c0.111,0.113,0.203,0.237,0.316,0.349C187.443,269.499,228.607,269.52,254.04,244.171z"/>
			
				<linearGradient id="SVGID_00000181085285413279978410000005475266103367564949_" gradientUnits="userSpaceOnUse" x1="244.1732" y1="197.5452" x2="93.1506" y2="113.5582">
				<stop  offset="0" style="stop-color:#FE9C0A"/>
				<stop  offset="0.3023" style="stop-color:#FFBF0B"/>
				<stop  offset="1" style="stop-color:#FB5507"/>
			</linearGradient>
			<path style="fill:url(#SVGID_00000181085285413279978410000005475266103367564949_);" d="M254.042,151.936l-12.886,12.886
				c-9.989-13.068-25.712-21.487-43.458-21.487c-29.274,0-53.175,22.996-54.654,51.908c0.664-15.723,7.032-31.235,19.013-43.216
				C187.437,126.616,228.601,126.586,254.042,151.936z"/>
			
				<linearGradient id="SVGID_00000102540398088355659020000011893853811221796227_" gradientUnits="userSpaceOnUse" x1="182.6064" y1="170.2764" x2="156.0234" y2="255.034">
				<stop  offset="0" style="stop-color:#FE9C0A"/>
				<stop  offset="0.3023" style="stop-color:#FFBF0B"/>
				<stop  offset="1" style="stop-color:#FB5507"/>
			</linearGradient>
			<path style="fill:url(#SVGID_00000102540398088355659020000011893853811221796227_);" d="M167.787,222.318
				c-4.292-7.087-6.809-15.369-6.809-24.259c0-25.93,21.02-46.95,46.95-46.95c1.555,0,3.089,0.085,4.606,0.233
				c-16.528-1.681-33.646,3.795-46.309,16.459c-20.833,20.832-22.233,53.713-4.245,76.192L167.787,222.318z"/>
			<g>
				
					<radialGradient id="SVGID_00000176001342578832221700000014467219507556360383_" cx="181.4412" cy="195.2653" r="9.5171" gradientUnits="userSpaceOnUse">
					<stop  offset="0" style="stop-color:#FFBF0B"/>
					<stop  offset="1" style="stop-color:#FB5507"/>
				</radialGradient>
				<circle style="fill:url(#SVGID_00000176001342578832221700000014467219507556360383_);" cx="184.812" cy="198.058" r="5.779"/>
				
					<radialGradient id="SVGID_00000116956042370886703180000014109000475204642727_" cx="204.5568" cy="195.2653" r="9.5172" gradientUnits="userSpaceOnUse">
					<stop  offset="0" style="stop-color:#FFBF0B"/>
					<stop  offset="1" style="stop-color:#FB5507"/>
				</radialGradient>
				<path style="fill:url(#SVGID_00000116956042370886703180000014109000475204642727_);" d="M213.707,198.058
					c0,3.192-2.587,5.779-5.779,5.779c-3.192,0-5.779-2.587-5.779-5.779c0-3.192,2.587-5.779,5.779-5.779
					C211.12,192.279,213.707,194.867,213.707,198.058z"/>
				
					<radialGradient id="SVGID_00000126295726995626225900000008991292062229104550_" cx="227.6725" cy="195.2653" r="9.5172" gradientUnits="userSpaceOnUse">
					<stop  offset="0" style="stop-color:#FFBF0B"/>
					<stop  offset="1" style="stop-color:#FB5507"/>
				</radialGradient>
				<path style="fill:url(#SVGID_00000126295726995626225900000008991292062229104550_);" d="M236.822,198.058
					c0,3.192-2.587,5.779-5.779,5.779s-5.779-2.587-5.779-5.779c0-3.192,2.587-5.779,5.779-5.779S236.822,194.867,236.822,198.058z"
					/>
			</g>
		</g>
		<g>
			
				<linearGradient id="SVGID_00000013186700233524095970000012106267923440235196_" gradientUnits="userSpaceOnUse" x1="1051.0313" y1="261.3747" x2="1131.1656" y2="178.1582" gradientTransform="matrix(-1 0 0 1 1386.5059 0)">
				<stop  offset="0" style="stop-color:#1D4DDA"/>
				<stop  offset="0.3032" style="stop-color:#3887FE"/>
				<stop  offset="1" style="stop-color:#5100BD"/>
			</linearGradient>
			<path style="fill:url(#SVGID_00000013186700233524095970000012106267923440235196_);" d="M294.609,263.018
				c0.31-0.017,0.622-0.022,0.93-0.044c0.885-0.065,1.764-0.166,2.645-0.28c0.309-0.041,0.616-0.086,0.923-0.133
				c6.038-0.907,11.916-2.987,17.293-6.243l21.627,5.795l-5.795-21.628c3.247-5.363,5.324-11.224,6.235-17.245
				c0.052-0.336,0.101-0.672,0.145-1.01c0.111-0.858,0.21-1.715,0.273-2.576c0.027-0.361,0.033-0.728,0.052-1.091
				c0.652-12.825-3.856-25.866-13.629-35.639c-18.325-18.325-48.146-18.325-66.472,0l-12.876-12.876
				c25.433-25.349,66.597-25.328,91.998,0.072c25.427,25.427,25.427,66.652,0,92.079c-25.401,25.401-66.565,25.422-91.998,0.073
				l12.876-12.876C268.643,259.202,281.741,263.708,294.609,263.018z"/>
			
				<linearGradient id="SVGID_00000035503689923292647670000004276999375441247927_" gradientUnits="userSpaceOnUse" x1="1163.8864" y1="239.4177" x2="1035.8507" y2="287.1903" gradientTransform="matrix(-1 0 0 1 1386.5059 0)">
				<stop  offset="0" style="stop-color:#4728FF"/>
				<stop  offset="0.307" style="stop-color:#9125FF"/>
				<stop  offset="1" style="stop-color:#5100BD"/>
			</linearGradient>
			<path style="fill:url(#SVGID_00000035503689923292647670000004276999375441247927_);" d="M294.609,263.018
				c0.309-0.017,0.622-0.022,0.93-0.044c0.885-0.065,1.764-0.166,2.645-0.28c0.309-0.041,0.616-0.086,0.923-0.133
				c6.038-0.907,11.915-2.987,17.292-6.243l21.627,5.795l-0.007-0.025c0.008,0.005,0.017,0.009,0.025,0.015
				c-0.031,0.031-0.056,0.065-0.086,0.095c-25.401,25.401-66.565,25.422-91.998,0.073l12.876-12.876
				C268.644,259.202,281.741,263.708,294.609,263.018z"/>
			
				<linearGradient id="SVGID_00000059273186512144258800000013628622934797695370_" gradientUnits="userSpaceOnUse" x1="1017.1864" y1="268.0818" x2="1149.3314" y2="264.2292" gradientTransform="matrix(-1 0 0 1 1386.5059 0)">
				<stop  offset="0" style="stop-color:#1D4DDA"/>
				<stop  offset="0.3032" style="stop-color:#3887FE"/>
				<stop  offset="1" style="stop-color:#5100BD"/>
			</linearGradient>
			<path style="fill:url(#SVGID_00000059273186512144258800000013628622934797695370_);" d="M245.96,262.27l12.876-12.876
				c0.035,0.035,0.074,0.063,0.109,0.098c10.657,13.821,27.369,22.742,46.195,22.742c12.321,0,23.716-3.864,33.134-10.386
				c-0.111,0.113-0.203,0.237-0.316,0.349C312.557,287.598,271.393,287.619,245.96,262.27z"/>
			
				<linearGradient id="SVGID_00000181773278884711862660000014714559433747153047_" gradientUnits="userSpaceOnUse" x1="1130.6791" y1="215.6443" x2="979.6566" y2="131.6573" gradientTransform="matrix(-1 0 0 1 1386.5059 0)">
				<stop  offset="0" style="stop-color:#1D4DDA"/>
				<stop  offset="0.3032" style="stop-color:#3887FE"/>
				<stop  offset="1" style="stop-color:#5100BD"/>
			</linearGradient>
			<path style="fill:url(#SVGID_00000181773278884711862660000014714559433747153047_);" d="M245.958,170.035l12.886,12.887
				c9.989-13.068,25.712-21.487,43.458-21.487c29.273,0,53.175,22.996,54.654,51.908c-0.664-15.723-7.031-31.235-19.013-43.216
				C312.563,144.715,271.399,144.685,245.958,170.035z"/>
			
				<linearGradient id="SVGID_00000152260089240238544900000010580915611084672698_" gradientUnits="userSpaceOnUse" x1="1069.1123" y1="188.3756" x2="1042.5293" y2="273.1331" gradientTransform="matrix(-1 0 0 1 1386.5059 0)">
				<stop  offset="0" style="stop-color:#4728FF"/>
				<stop  offset="0.307" style="stop-color:#9125FF"/>
				<stop  offset="1" style="stop-color:#5100BD"/>
			</linearGradient>
			<path style="fill:url(#SVGID_00000152260089240238544900000010580915611084672698_);" d="M332.213,240.417
				c4.293-7.087,6.809-15.369,6.809-24.259c0-25.93-21.02-46.95-46.95-46.95c-1.555,0-3.09,0.085-4.606,0.233
				c16.528-1.681,33.646,3.795,46.309,16.458c20.832,20.832,22.233,53.713,4.245,76.192L332.213,240.417z"/>
			
				<radialGradient id="SVGID_00000039829899786045870980000010741595500031681691_" cx="265.1714" cy="210.7424" r="10.9551" gradientUnits="userSpaceOnUse">
				<stop  offset="0" style="stop-color:#9125FF"/>
				<stop  offset="1" style="stop-color:#5100BD"/>
			</radialGradient>
			<path style="fill:url(#SVGID_00000039829899786045870980000010741595500031681691_);" d="M263.177,216.158
				c0,3.192,2.587,5.779,5.779,5.779c3.192,0,5.779-2.587,5.779-5.779c0-3.192-2.587-5.779-5.779-5.779
				C265.765,210.379,263.177,212.966,263.177,216.158z"/>
			
				<radialGradient id="SVGID_00000008865098366735201440000000604747239505566868_" cx="288.2871" cy="210.7424" r="10.9551" gradientUnits="userSpaceOnUse">
				<stop  offset="0" style="stop-color:#9125FF"/>
				<stop  offset="1" style="stop-color:#5100BD"/>
			</radialGradient>
			<path style="fill:url(#SVGID_00000008865098366735201440000000604747239505566868_);" d="M286.293,216.158
				c0,3.192,2.587,5.779,5.779,5.779c3.192,0,5.779-2.587,5.779-5.779c0-3.192-2.587-5.779-5.779-5.779
				C288.88,210.379,286.293,212.966,286.293,216.158z"/>
			
				<radialGradient id="SVGID_00000068643026878128812270000006346478577232741561_" cx="313.9191" cy="213.5655" r="6.8637" gradientUnits="userSpaceOnUse">
				<stop  offset="0" style="stop-color:#9125FF"/>
				<stop  offset="1" style="stop-color:#5100BD"/>
			</radialGradient>
			<path style="fill:url(#SVGID_00000068643026878128812270000006346478577232741561_);" d="M309.409,216.158
				c0,3.192,2.587,5.779,5.779,5.779c3.192,0,5.779-2.587,5.779-5.779c0-3.192-2.587-5.779-5.779-5.779
				C311.996,210.379,309.409,212.966,309.409,216.158z"/>
		</g>
	</g>
</g>
<g id="TEXTS">
	<g>
		<g>
			
				<linearGradient id="SVGID_00000014622330910482677160000010373113671195060615_" gradientUnits="userSpaceOnUse" x1="213.0286" y1="251.8401" x2="286.9268" y2="379.8355">
				<stop  offset="0" style="stop-color:#2D2D2D"/>
				<stop  offset="0.1594" style="stop-color:#2F2F2F"/>
				<stop  offset="0.2168" style="stop-color:#353536"/>
				<stop  offset="0.2577" style="stop-color:#414141"/>
				<stop  offset="0.2906" style="stop-color:#515152"/>
				<stop  offset="0.3045" style="stop-color:#5A5B5C"/>
				<stop  offset="1" style="stop-color:#2D2D2D"/>
			</linearGradient>
			<path style="fill:url(#SVGID_00000014622330910482677160000010373113671195060615_);" d="M122.751,303.962h7.998v17.521h10.709
				v6.202h-18.707V303.962z"/>
			
				<linearGradient id="SVGID_00000021116649151981688500000001821866445422306228_" gradientUnits="userSpaceOnUse" x1="213.0286" y1="251.8401" x2="286.9268" y2="379.8355">
				<stop  offset="0" style="stop-color:#2D2D2D"/>
				<stop  offset="0.1594" style="stop-color:#2F2F2F"/>
				<stop  offset="0.2168" style="stop-color:#353536"/>
				<stop  offset="0.2577" style="stop-color:#414141"/>
				<stop  offset="0.2906" style="stop-color:#515152"/>
				<stop  offset="0.3045" style="stop-color:#5A5B5C"/>
				<stop  offset="1" style="stop-color:#2D2D2D"/>
			</linearGradient>
			<path style="fill:url(#SVGID_00000021116649151981688500000001821866445422306228_);" d="M142.708,315.823
				c0-7.185,5.66-12.403,13.386-12.403c7.727,0,13.387,5.219,13.387,12.403s-5.66,12.403-13.387,12.403
				C148.368,328.227,142.708,323.008,142.708,315.823z M161.415,315.823c0-3.694-2.372-5.931-5.321-5.931
				c-2.948,0-5.321,2.236-5.321,5.931s2.373,5.931,5.321,5.931C159.043,321.754,161.415,319.518,161.415,315.823z"/>
			
				<linearGradient id="SVGID_00000029022385344901974710000015063504946069536411_" gradientUnits="userSpaceOnUse" x1="213.0286" y1="251.8401" x2="286.9268" y2="379.8355">
				<stop  offset="0" style="stop-color:#2D2D2D"/>
				<stop  offset="0.1594" style="stop-color:#2F2F2F"/>
				<stop  offset="0.2168" style="stop-color:#353536"/>
				<stop  offset="0.2577" style="stop-color:#414141"/>
				<stop  offset="0.2906" style="stop-color:#515152"/>
				<stop  offset="0.3045" style="stop-color:#5A5B5C"/>
				<stop  offset="1" style="stop-color:#2D2D2D"/>
			</linearGradient>
			<path style="fill:url(#SVGID_00000029022385344901974710000015063504946069536411_);" d="M182.557,321.72h-2.169v5.965h-7.998
				v-23.723h11.421c6.608,0,10.811,3.457,10.811,8.946c0,3.423-1.627,5.999-4.474,7.456l4.982,7.32h-8.541L182.557,321.72z
				 M183.303,310.13h-2.915v5.558h2.915c2.203,0,3.253-1.051,3.253-2.779C186.556,311.181,185.505,310.13,183.303,310.13z"/>
			
				<linearGradient id="SVGID_00000026850813894531045900000007480975173607304321_" gradientUnits="userSpaceOnUse" x1="213.0286" y1="251.8401" x2="286.9268" y2="379.8355">
				<stop  offset="0" style="stop-color:#2D2D2D"/>
				<stop  offset="0.1594" style="stop-color:#2F2F2F"/>
				<stop  offset="0.2168" style="stop-color:#353536"/>
				<stop  offset="0.2577" style="stop-color:#414141"/>
				<stop  offset="0.2906" style="stop-color:#515152"/>
				<stop  offset="0.3045" style="stop-color:#5A5B5C"/>
				<stop  offset="1" style="stop-color:#2D2D2D"/>
			</linearGradient>
			<path style="fill:url(#SVGID_00000026850813894531045900000007480975173607304321_);" d="M217.357,321.652v6.032h-19.724v-23.723
				h19.283v6.032h-11.421v2.779h10.032v5.761h-10.032v3.118H217.357z"/>
			
				<linearGradient id="SVGID_00000036213548260860793510000014933756588017055619_" gradientUnits="userSpaceOnUse" x1="213.0286" y1="251.8401" x2="286.9268" y2="379.8355">
				<stop  offset="0" style="stop-color:#2D2D2D"/>
				<stop  offset="0.1594" style="stop-color:#2F2F2F"/>
				<stop  offset="0.2168" style="stop-color:#353536"/>
				<stop  offset="0.2577" style="stop-color:#414141"/>
				<stop  offset="0.2906" style="stop-color:#515152"/>
				<stop  offset="0.3045" style="stop-color:#5A5B5C"/>
				<stop  offset="1" style="stop-color:#2D2D2D"/>
			</linearGradient>
			<path style="fill:url(#SVGID_00000036213548260860793510000014933756588017055619_);" d="M241.618,327.685l-0.068-10.811
				l-5.151,8.676h-3.525l-5.151-8.304v10.438h-7.287v-23.723h6.575l7.727,12.641l7.523-12.641h6.575l0.067,23.723H241.618z"/>
			
				<linearGradient id="SVGID_00000109738151885000709170000010883714839552338585_" gradientUnits="userSpaceOnUse" x1="213.0286" y1="251.8401" x2="286.9268" y2="379.8355">
				<stop  offset="0" style="stop-color:#2D2D2D"/>
				<stop  offset="0.1594" style="stop-color:#2F2F2F"/>
				<stop  offset="0.2168" style="stop-color:#353536"/>
				<stop  offset="0.2577" style="stop-color:#414141"/>
				<stop  offset="0.2906" style="stop-color:#515152"/>
				<stop  offset="0.3045" style="stop-color:#5A5B5C"/>
				<stop  offset="1" style="stop-color:#2D2D2D"/>
			</linearGradient>
			<path style="fill:url(#SVGID_00000109738151885000709170000010883714839552338585_);" d="M262.927,303.962h7.998v23.723h-7.998
				V303.962z"/>
			
				<linearGradient id="SVGID_00000159436962953343019880000004930614426521063846_" gradientUnits="userSpaceOnUse" x1="213.0286" y1="251.8401" x2="286.9268" y2="379.8355">
				<stop  offset="0" style="stop-color:#2D2D2D"/>
				<stop  offset="0.1594" style="stop-color:#2F2F2F"/>
				<stop  offset="0.2168" style="stop-color:#353536"/>
				<stop  offset="0.2577" style="stop-color:#414141"/>
				<stop  offset="0.2906" style="stop-color:#515152"/>
				<stop  offset="0.3045" style="stop-color:#5A5B5C"/>
				<stop  offset="1" style="stop-color:#2D2D2D"/>
			</linearGradient>
			<path style="fill:url(#SVGID_00000159436962953343019880000004930614426521063846_);" d="M297.018,312.908
				c0,5.49-4.203,8.947-10.811,8.947h-3.423v5.829h-7.998v-23.723h11.421C292.815,303.962,297.018,307.419,297.018,312.908z
				 M288.952,312.908c0-1.728-1.051-2.778-3.253-2.778h-2.915v5.558h2.915C287.901,315.688,288.952,314.637,288.952,312.908z"/>
			
				<linearGradient id="SVGID_00000050621134621751507420000003753980008444817807_" gradientUnits="userSpaceOnUse" x1="213.0286" y1="251.8401" x2="286.9268" y2="379.8355">
				<stop  offset="0" style="stop-color:#2D2D2D"/>
				<stop  offset="0.1594" style="stop-color:#2F2F2F"/>
				<stop  offset="0.2168" style="stop-color:#353536"/>
				<stop  offset="0.2577" style="stop-color:#414141"/>
				<stop  offset="0.2906" style="stop-color:#515152"/>
				<stop  offset="0.3045" style="stop-color:#5A5B5C"/>
				<stop  offset="1" style="stop-color:#2D2D2D"/>
			</linearGradient>
			<path style="fill:url(#SVGID_00000050621134621751507420000003753980008444817807_);" d="M298.47,325.787l2.576-5.829
				c2.237,1.321,5.219,2.169,7.829,2.169c2.271,0,3.084-0.475,3.084-1.288c0-2.982-13.115-0.576-13.115-9.421
				c0-4.406,3.694-7.998,11.048-7.998c3.186,0,6.473,0.678,8.947,2.066l-2.406,5.796c-2.338-1.187-4.542-1.763-6.609-1.763
				c-2.338,0-3.084,0.678-3.084,1.491c0,2.847,13.116,0.475,13.116,9.218c0,4.338-3.694,7.998-11.048,7.998
				C304.841,328.227,300.842,327.244,298.47,325.787z"/>
			
				<linearGradient id="SVGID_00000178913610556025484540000009308380156597694377_" gradientUnits="userSpaceOnUse" x1="213.0286" y1="251.8401" x2="286.9268" y2="379.8355">
				<stop  offset="0" style="stop-color:#2D2D2D"/>
				<stop  offset="0.1594" style="stop-color:#2F2F2F"/>
				<stop  offset="0.2168" style="stop-color:#353536"/>
				<stop  offset="0.2577" style="stop-color:#414141"/>
				<stop  offset="0.2906" style="stop-color:#515152"/>
				<stop  offset="0.3045" style="stop-color:#5A5B5C"/>
				<stop  offset="1" style="stop-color:#2D2D2D"/>
			</linearGradient>
			<path style="fill:url(#SVGID_00000178913610556025484540000009308380156597694377_);" d="M322.02,317.01v-13.048h7.998v12.811
				c0,3.626,1.389,4.981,3.626,4.981s3.626-1.355,3.626-4.981v-12.811h7.862v13.048c0,7.116-4.27,11.217-11.557,11.217
				C326.29,328.227,322.02,324.126,322.02,317.01z"/>
			
				<linearGradient id="SVGID_00000083047921152816311390000011076292723107904912_" gradientUnits="userSpaceOnUse" x1="213.0286" y1="251.8401" x2="286.9268" y2="379.8355">
				<stop  offset="0" style="stop-color:#2D2D2D"/>
				<stop  offset="0.1594" style="stop-color:#2F2F2F"/>
				<stop  offset="0.2168" style="stop-color:#353536"/>
				<stop  offset="0.2577" style="stop-color:#414141"/>
				<stop  offset="0.2906" style="stop-color:#515152"/>
				<stop  offset="0.3045" style="stop-color:#5A5B5C"/>
				<stop  offset="1" style="stop-color:#2D2D2D"/>
			</linearGradient>
			<path style="fill:url(#SVGID_00000083047921152816311390000011076292723107904912_);" d="M369.969,327.685l-0.068-10.811
				l-5.151,8.676h-3.525l-5.151-8.304v10.438h-7.287v-23.723h6.575l7.727,12.641l7.523-12.641h6.575l0.067,23.723H369.969z"/>
		</g>
	</g>
	<g>
		
			<text transform="matrix(1 0 0 1 182.5781 350.665)" style="fill:#808285; font-family:'Montserrat-Italic'; font-size:15.9542px;">your tagline here</text>
	</g>
</g>
</svg>
